<svg xmlns="http://www.w3.org/2000/svg" viewBox="0 0 238.69 203.21"><defs><style>.cls-1{fill:#6a0dad;}</style></defs><title>Asset 2</title><g id="Layer_2" data-name="Layer 2"><g id="Layer_1-2" data-name="Layer 1"><path class="cls-1" d="M207,31.73s-10.82,3.66-19.66,2.48a63.39,63.39,0,0,0-19.65.94s-16.46-.38-30.89,13.25c0,0,1-15.17,26.35-29.36,0,0,20.8-9,30.75-8.64,0,0,28.31-.65,42-10.4,0,0-4.85,9-.12,36.14,0,0,6.19,21.08.59,39.52s-3.42,20-23.39,38.5A88,88,0,0,1,174.15,128s-18.39,3.17-35.1-6.79c0,0,22.75,2.2,37.4-6.24,0,0,17.06-7,22.27-22,0,0,5.37-7.43,5.77-27.33,0,0-2.23-11.74.35-22.53Z"/><path class="cls-1" d="M65.89,37.05s1.27,11.35-1.76,19.73a63.49,63.49,0,0,0-3.27,19.4s-3.86,16,6.39,33c0,0-14.61-4.22-23.09-32,0,0-4.36-22.24-1.91-31.89,0,0,5.39-27.81-1.22-43.28,0,0,7.79,6.66,35.29,7.8,0,0,21.91-1.57,38.74,7.83s18.83,7.6,32.65,31a88,88,0,0,1,5.22,40.85s-.81,18.65-14.1,32.86c0,0,7-21.77,1.86-37.88,0,0-3.19-18.15-16.77-26.43,0,0-6.12-6.83-25.48-11.46,0,0-12-.31-21.94-5.13Z"/><path class="cls-1" d="M40.06,172.28s11.31,1.56,18.69,6.56a63.48,63.48,0,0,0,18,7.94s14.56,7.68,33.56,1.93c0,0-7.69,13.13-36.69,14.5,0,0-22.62-1.25-31.37-6,0,0-25.63-12.06-42.25-9.46,0,0,8.37-5.91,16.25-32.29,0,0,3.87-21.62,17.12-35.62s12-16.38,38.13-24a87.87,87.87,0,0,1,40.87,5s17.88,5.37,28.38,21.75c0,0-19.38-12.13-36.25-11.13,0,0-18.38-1.37-29.75,9.75,0,0-8.13,4.25-17.38,21.88,0,0-3.25,11.5-10.37,20Z"/></g></g></svg>