<svg id="BACKGROUND" xmlns="http://www.w3.org/2000/svg" xmlns:xlink="http://www.w3.org/1999/xlink" viewBox="0 0 1791.96 1197.39"><defs><style>.cls-1{fill:url(#Degradado_sin_nombre_52);}.cls-2{fill:#6a0dad;}</style><linearGradient id="Degradado_sin_nombre_52" x1="1791.46" y1="599.2" x2="0.44" y2="599.2" gradientUnits="userSpaceOnUse"><stop offset="0" stop-color="#c7c7c7"/><stop offset="1" stop-color="#fff"/></linearGradient></defs><title>Mesa de trabajo 1</title><path class="cls-1" d="M.44,1.3V1197.11h1791V759.33c-45.85-4.2-91.4-1.48-131.91,19-63.77,32.3-99.16,100.45-138.24,160.31-46.34,71-111.72,139.9-196.13,147.79-80.73,7.55-155.29-43.1-213.47-99.58s-110-122.52-182.06-159.67c-43.22-22.27-69.42-12.66-124.36-19.51-38.84-4.84-57.62-11.27-72.56-16-67.24-21.36-135.12-88.88-159-173.36-40.48-143.07,65.55-262.76,108-296.43a347.87,347.87,0,0,1,39.9-26.55c41.89-24.08,77.84-46.46,112.51-35.58,18.15,5.7,34,17,51.6,24.27s39.06,10.06,54.68-.81c8-5.54,13.45-14,17.24-23,22.06-51.82-8.94-109.73-12.86-165.92-2.26-32.42,6.11-64.83,22.08-93Z"/><path class="cls-2" d="M932.87,258.32a10.76,10.76,0,0,1-1.15,3.92,16.06,16.06,0,0,1-2.41,3.54,21.49,21.49,0,0,1-7.18,5.07c-5.44,2.42-11.35,3.13-17.06,3.22a19.3,19.3,0,0,1-4.14-.72c-1.34-.37-2.7-.64-4-1l-4-1.08c-1.31-.38-2.59-.82-3.88-1.22a156,156,0,0,1-15-5.87,278.37,278.37,0,0,1-28-14.66,100.13,100.13,0,0,0-26.9-11.15,92.71,92.71,0,0,0-28.8-2.44c-1.21.05-2.41.25-3.62.37s-2.42.21-3.61.46c-2.4.42-4.8.77-7.17,1.37a108.85,108.85,0,0,0-14.05,4.19,137.4,137.4,0,0,0-13.51,5.95c-2.18,1.17-4.38,2.3-6.5,3.57-1.07.63-2.16,1.22-3.17,1.94-.51.35-1,.73-1.52,1.07a11.24,11.24,0,0,1-1.64.88,193.77,193.77,0,0,0-27.32,14.36,99.85,99.85,0,0,1,9.49-12.84A130.86,130.86,0,0,1,729,245.72a14.32,14.32,0,0,1,3.38-2.17c.59-.32,1.15-.69,1.73-1l1.74-1c2.3-1.38,4.69-2.61,7.06-3.88a146.92,146.92,0,0,1,14.8-6.52,120.37,120.37,0,0,1,15.58-4.64c2.63-.67,5.33-1.07,8-1.54,1.33-.26,2.71-.34,4.06-.51s2.71-.35,4.07-.42a105,105,0,0,1,32.61,2.77,112,112,0,0,1,30.08,12.45,266.44,266.44,0,0,0,26.8,14,145.05,145.05,0,0,0,13.83,5.43c1.17.36,2.33.77,3.5,1.1l3.5,1c1.17.25,2.33.55,3.51.74a16.22,16.22,0,0,1,3.47.57,52,52,0,0,0,6.8,1.79,30.77,30.77,0,0,0,6.89.6,18,18,0,0,0,6.73-1.46A12.5,12.5,0,0,0,932.87,258.32Z"/><path class="cls-2" d="M793.58,823.54A136.69,136.69,0,0,1,810.93,821c5.84-.52,11.71-.83,17.58-.85a20.2,20.2,0,0,1,4.31.63c1.43.3,2.87.49,4.3.73,2.87.46,5.72,1,8.58,1.51l8.53,1.75,8.49,2a331,331,0,0,1,65.51,23.57,335.12,335.12,0,0,1,30.42,17.13c4.82,3.28,9.74,6.41,14.37,10l3.52,2.59,1.76,1.3c.58.44,1.14.91,1.71,1.36l6.8,5.49a278.5,278.5,0,0,1,25.39,24,203.84,203.84,0,0,1,17.44,30.43c-2.23-1.9-4.37-3.85-6.54-5.75s-4.2-3.9-6.47-5.69-4.37-3.68-6.55-5.5l-1.62-1.38-1.68-1.31-3.35-2.6a262.85,262.85,0,0,0-24.3-23l-6.51-5.25c-.55-.44-1.08-.88-1.64-1.31l-1.68-1.24L965.93,887c-4.44-3.4-9.16-6.39-13.77-9.53a300.12,300.12,0,0,0-92.29-39.14,296.63,296.63,0,0,0-33-6.23C816,828.93,805,826,793.58,823.54Z"/><path class="cls-2" d="M883,863a80.43,80.43,0,0,1,13.78.57,131.45,131.45,0,0,1,13.63,2.31A269.16,269.16,0,0,1,934.71,878c7.86,4.44,15.49,9.27,22.88,14.4S972.1,903,979,908.77s13.53,11.82,20,18,12.64,12.75,18.53,19.5c1.48,1.69,3,3.33,4.44,5.05l4.31,5.15,2.16,2.58,2.09,2.63c.7.87,1.36,1.77,2.1,2.61a11.56,11.56,0,0,1,2.06,2.66c2.06,4.06,4,8.22,5.82,12.36s3.44,8.45,5,12.72c-3.52-2.94-6.9-5.94-10.23-8.93-1.72-1.46-3.39-2.94-5.07-4.41s-3.29-3-5-4.39c-2.78-3.34-5.28-6.91-8.16-10.17l-4.18-5c-1.39-1.67-2.87-3.26-4.3-4.89-5.71-6.55-11.79-12.75-17.94-18.87S978,923.51,971.34,918s-13.52-10.81-20.61-15.77-14.41-9.55-21.91-13.79c-3.75-2.13-7.56-4.13-11.41-6.06-1.92-1-3.87-1.86-5.81-2.79-1-.43-2-.9-3-1.28a15.14,15.14,0,0,1-3-1.26C898.45,872.13,891,867.35,883,863Z"/><path class="cls-2" d="M1763.18,777.09c-3,.45-5.9,1-8.8,1.62-1.45.3-2.89.65-4.32,1l-4.28,1.06c-5.67,1.48-11.23,3.2-16.7,5a187.4,187.4,0,0,0-33,9.13A208.78,208.78,0,0,0,1637,829.44a256.88,256.88,0,0,0-24.78,23.94c-1.89,2.17-3.72,4.39-5.59,6.58l-2.79,3.3c-.91,1.12-1.76,2.29-2.64,3.43l-5.24,6.88c-1.7,2.33-3.29,4.74-4.93,7.11a311.92,311.92,0,0,0-17.89,29.71c-.92,1.15-1.74,2.36-2.58,3.56l-2.53,3.61c-1.71,2.39-3.39,4.82-5.16,7.22s-3.27,4.94-4.92,7.42-3.35,4.95-5.1,7.42c.61-2.94,1.32-5.85,2-8.79s1.43-5.85,2.19-8.77c1.74-5.75,3.49-11.55,5.5-17.28a323.18,323.18,0,0,1,18.58-30.86c1.72-2.47,3.37-5,5.15-7.42l5.48-7.19c.92-1.19,1.81-2.41,2.76-3.58l2.91-3.45c2-2.3,3.88-4.63,5.87-6.89a269.48,269.48,0,0,1,26-25.19,220.75,220.75,0,0,1,62.52-36.53l4.29-1.54c1.43-.51,2.85-1,4.31-1.47,2.9-.89,5.77-1.89,8.71-2.64l4.4-1.19c1.47-.38,3-.7,4.43-1.06l4.44-1a24.57,24.57,0,0,1,4.47-.89,151.48,151.48,0,0,1,18.34.3A99.16,99.16,0,0,1,1763.18,777.09Z"/></svg>